<?xml version="1.0" standalone="no"?>
<!DOCTYPE svg PUBLIC "-//W3C//DTD SVG 20010904//EN"
 "http://www.w3.org/TR/2001/REC-SVG-20010904/DTD/svg10.dtd">
<svg version="1.0" xmlns="http://www.w3.org/2000/svg"
 width="32.000000pt" height="32.000000pt" viewBox="0 0 32.000000 32.000000"
 preserveAspectRatio="xMidYMid meet">

<g transform="translate(0.000000,32.000000) scale(0.100000,-0.100000)"
fill="#000000" stroke="none">
<path d="M70 303 c-44 -22 -74 -80 -65 -122 16 -73 90 -115 154 -89 34 14 34
14 79 -34 40 -43 82 -63 82 -39 0 4 -24 30 -52 58 l-53 49 14 40 c12 34 11 44
-2 76 -27 65 -96 92 -157 61z m111 -42 c39 -40 39 -82 0 -122 -20 -20 -39 -29
-61 -29 -43 0 -90 47 -90 90 0 43 47 90 90 90 22 0 41 -9 61 -29z"/>
</g>
</svg>
