<?xml version="1.0" standalone="no"?>
<!DOCTYPE svg PUBLIC "-//W3C//DTD SVG 20010904//EN"
 "http://www.w3.org/TR/2001/REC-SVG-20010904/DTD/svg10.dtd">
<svg version="1.0" xmlns="http://www.w3.org/2000/svg"
 width="16.000000pt" height="16.000000pt" viewBox="0 0 16.000000 16.000000"
 preserveAspectRatio="xMidYMid meet">

<g transform="translate(0.000000,16.000000) scale(0.100000,-0.100000)"
fill="#000000" stroke="none">
<path d="M4 136 c-9 -24 0 -89 14 -92 7 -1 8 0 2 3 -5 2 -10 25 -10 49 l0 44
50 0 c38 0 50 -4 50 -15 0 -12 4 -14 19 -5 18 9 20 6 24 -32 l4 -43 1 49 c2
44 0 48 -18 43 -11 -3 -23 -1 -26 4 -9 15 -104 11 -110 -5z"/>
<path d="M66 84 c-9 -8 -16 -22 -16 -29 0 -18 27 -45 45 -45 18 0 45 27 45 45
0 18 -27 45 -45 45 -7 0 -21 -7 -29 -16z m58 -16 c8 -14 7 -21 -6 -34 -30 -30
-75 9 -48 42 16 18 39 15 54 -8z"/>
<path d="M84 66 c-8 -8 -7 -15 0 -22 8 -8 15 -7 22 0 8 8 7 15 0 22 -8 8 -15
7 -22 0z"/>
</g>
</svg>
